<?xml version="1.0" encoding="UTF-8" standalone="no"?>
<!DOCTYPE svg PUBLIC "-//W3C//DTD SVG 1.1//EN" "http://www.w3.org/Graphics/SVG/1.1/DTD/svg11.dtd">
<svg version="1.1" xmlns="http://www.w3.org/2000/svg" xmlns:dc="http://purl.org/dc/elements/1.1/" xmlns:xl="http://www.w3.org/1999/xlink" viewBox="0 0 400 650" width="400" height="650">
  <defs/>
  <metadata> Produced by OmniGraffle 7.10.2 
    <dc:date>2019-07-14 23:16:14 +0000</dc:date>
  </metadata>
  <g id="Canvas_1" stroke-dasharray="none" fill="none" fill-opacity="1" stroke="none" stroke-opacity="1">
    <title>Canvas 1</title>
    <g id="Canvas_1: Layer 1">
      <title>Layer 1</title>
      <g id="Group_12">
        <g id="Graphic_14">
          <path d="M 25e-6 450 C 25e-6 501.1844 19.526314 552.3688 58.57889 591.42115 C 136.68365 669.5263 263.31638 669.5263 341.42113 591.42115 C 419.5263 513.3164 419.5263 386.68366 341.42113 308.5789 C 302.62263 269.7802 251.84935 250.25472 200.99822 250.0025 C 200.66546 250.00085 200.33268 250.00002 199.99991 250.00003 C 187.20385 250.00003 174.4078 254.8816 164.64473 264.64472 C 145.11844 284.1709 145.11844 315.8291 164.64473 335.3553 C 174.4078 345.1184 187.20385 349.99997 199.99991 350 L 199.99991 350.00003 C 225.59213 350 251.18436 359.76314 270.71057 379.28946 C 309.76315 418.34184 309.76315 481.6582 270.71057 520.7106 C 231.6582 559.7632 168.34183 559.7632 129.28945 520.7106 C 109.76316 501.1844 100.00002 475.5922 100.00002 450 M 100.00002 449.9999 L 100.00002 200.00002 L 200.00001 200.00002 C 227.61425 200.00002 250 177.61426 250 150.00002 C 250 122.38579 227.61425 100.00002 200.00001 100.00002 L 100.00002 100.00002 L 100.00002 50.05018 C 100.00004 50.03346 100.00004 50.016744 100.00004 50.000025 C 100.00004 37.203925 95.11847 24.407825 85.35532 14.644725 C 65.82912 -4.881575 34.170923 -4.881575 14.644724 14.644725 C 4.8815747 24.407825 2842171e-20 37.203925 2842171e-20 50.000025 L 24999998e-12 50.05018 L 24999998e-12 150.00002 L 24999998e-12 150.00002 L 24999998e-12 450 L 25e-6 450 L 25e-6 450" fill="#333333"/>
        </g>
        <g id="Graphic_13">
          <circle cx="200" cy="450" r="50.0000783325925" fill="#333333"/>
        </g>
      </g>
    </g>
  </g>
</svg>
